<svg width="158" height="158" viewBox="0 0 158 158" fill="none" xmlns="http://www.w3.org/2000/svg">
<mask id="path-1-inside-1_64_1298" fill="white">
<path fill-rule="evenodd" clip-rule="evenodd" d="M0 41.75H38.75H77.5V80.5H38.75V119.25H77.5V158H38.75H0V119.25V80.5V41.75Z"/>
</mask>
<path d="M0 41.75V38.75H-3V41.75H0ZM77.5 41.75H80.5V38.75H77.5V41.75ZM77.5 80.5V83.5H80.5V80.5H77.5ZM38.75 80.5V77.5H35.75V80.5H38.75ZM38.75 119.25H35.75V122.25H38.75V119.25ZM77.5 119.25H80.5V116.25H77.5V119.25ZM77.5 158V161H80.5V158H77.5ZM0 158H-3V161H0V158ZM38.75 38.75H0V44.75H38.75V38.75ZM77.5 38.75H38.75V44.75H77.5V38.75ZM80.5 80.5V41.75H74.5V80.5H80.5ZM38.75 83.5H77.5V77.5H38.75V83.5ZM41.75 119.25V80.5H35.75V119.25H41.75ZM38.75 122.25H77.5V116.25H38.75V122.25ZM74.5 119.25V158H80.5V119.25H74.5ZM77.5 155H38.75V161H77.5V155ZM0 161H38.75V155H0V161ZM-3 119.25V158H3V119.25H-3ZM-3 80.5V119.25H3V80.5H-3ZM-3 41.75V80.5H3V41.75H-3Z" fill="#C778DD" mask="url(#path-1-inside-1_64_1298)"/>
<mask id="path-3-outside-2_64_1298" maskUnits="userSpaceOnUse" x="74.5" y="0" width="84" height="123" fill="black">
<rect fill="white" x="74.5" width="84" height="123"/>
<path fill-rule="evenodd" clip-rule="evenodd" d="M77.5 3H116.25H155V41.75V80.5V119.25H116.25H77.5V80.5H116.25V41.75H77.5V3Z"/>
</mask>
<path d="M77.5 3V0H74.5V3H77.5ZM155 3H158V0H155V3ZM155 119.25V122.25H158V119.25H155ZM77.5 119.25H74.5V122.25H77.5V119.25ZM77.5 80.5V77.5H74.5V80.5H77.5ZM116.25 80.5V83.5H119.25V80.5H116.25ZM116.25 41.75H119.25V38.75H116.25V41.75ZM77.5 41.75H74.5V44.75H77.5V41.75ZM116.25 0H77.5V6H116.25V0ZM155 0H116.25V6H155V0ZM158 41.75V3H152V41.75H158ZM158 80.5V41.75H152V80.5H158ZM158 119.25V80.5H152V119.25H158ZM116.25 122.25H155V116.25H116.25V122.25ZM116.25 116.25H77.5V122.25H116.25V116.25ZM80.5 119.25V80.5H74.5V119.25H80.5ZM77.5 83.5H116.25V77.5H77.5V83.5ZM113.25 41.75V80.5H119.25V41.75H113.25ZM77.5 44.75H116.25V38.75H77.5V44.75ZM74.5 3V41.75H80.5V3H74.5Z" fill="#C778DD" mask="url(#path-3-outside-2_64_1298)"/>
</svg>
