<svg width="69" height="68" viewBox="0 0 69 68" fill="none" xmlns="http://www.w3.org/2000/svg">
<circle cx="2" cy="2" r="2" fill="#ABB2BF"/>
<circle cx="18.25" cy="2" r="2" fill="#ABB2BF"/>
<circle cx="34.5" cy="2" r="2" fill="#ABB2BF"/>
<circle cx="50.75" cy="2" r="2" fill="#ABB2BF"/>
<circle cx="67" cy="2" r="2" fill="#ABB2BF"/>
<circle cx="2" cy="18" r="2" fill="#ABB2BF"/>
<circle cx="18.25" cy="18" r="2" fill="#ABB2BF"/>
<circle cx="34.5" cy="18" r="2" fill="#ABB2BF"/>
<circle cx="50.75" cy="18" r="2" fill="#ABB2BF"/>
<circle cx="67" cy="18" r="2" fill="#ABB2BF"/>
<circle cx="2" cy="34" r="2" fill="#ABB2BF"/>
<circle cx="18.25" cy="34" r="2" fill="#ABB2BF"/>
<circle cx="34.5" cy="34" r="2" fill="#ABB2BF"/>
<circle cx="50.75" cy="34" r="2" fill="#ABB2BF"/>
<circle cx="67" cy="34" r="2" fill="#ABB2BF"/>
<circle cx="2" cy="50" r="2" fill="#ABB2BF"/>
<circle cx="18.25" cy="50" r="2" fill="#ABB2BF"/>
<circle cx="34.5" cy="50" r="2" fill="#ABB2BF"/>
<circle cx="50.75" cy="50" r="2" fill="#ABB2BF"/>
<circle cx="67" cy="50" r="2" fill="#ABB2BF"/>
<circle cx="2" cy="66" r="2" fill="#ABB2BF"/>
<circle cx="18.25" cy="66" r="2" fill="#ABB2BF"/>
<circle cx="34.5" cy="66" r="2" fill="#ABB2BF"/>
<circle cx="50.75" cy="66" r="2" fill="#ABB2BF"/>
<circle cx="67" cy="66" r="2" fill="#ABB2BF"/>
</svg>
